<?xml version="1.0" standalone="no"?>
<!DOCTYPE svg PUBLIC "-//W3C//DTD SVG 20010904//EN"
 "http://www.w3.org/TR/2001/REC-SVG-20010904/DTD/svg10.dtd">
<svg version="1.0" xmlns="http://www.w3.org/2000/svg"
 width="512.000000pt" height="512.000000pt" viewBox="0 0 512.000000 512.000000"
 preserveAspectRatio="xMidYMid meet">

<g transform="translate(0.000000,512.000000) scale(0.100000,-0.100000)"
fill="#000000" stroke="none">
<path d="M1960 5075 c-8 -2 -49 -9 -90 -15 -91 -15 -224 -61 -298 -103 -75
-42 -163 -126 -192 -183 -35 -68 -36 -188 -2 -255 20 -41 42 -66 153 -170 15
-14 32 -43 38 -65 6 -22 12 -174 13 -347 l3 -307 -544 0 c-392 0 -555 -3 -584
-12 -21 -6 -59 -30 -83 -52 -46 -43 -69 -91 -300 -622 -74 -172 -74 -172 -74
-262 0 -183 78 -319 217 -378 l33 -14 0 -910 0 -910 -74 0 c-59 0 -79 -4 -106
-22 -55 -38 -70 -79 -70 -188 0 -115 23 -172 80 -202 33 -17 133 -18 2486 -18
l2451 0 34 23 c55 37 69 76 69 198 0 94 -3 110 -22 139 -40 58 -67 71 -157 77
l-81 6 0 903 0 903 53 24 c70 32 134 98 170 176 27 56 31 79 35 170 l4 106
-150 342 c-210 475 -202 461 -292 502 -43 20 -63 21 -570 21 l-525 0 3 332 c2
204 7 343 13 360 6 15 37 50 69 78 118 102 154 239 96 362 -51 107 -182 207
-347 262 -156 52 -213 56 -854 55 -324 -1 -597 -3 -605 -4z m259 -105 c255
-27 456 -123 521 -250 41 -81 20 -151 -73 -243 -113 -112 -111 -106 -115 -484
l-3 -323 -27 -20 c-25 -20 -35 -21 -413 -18 -357 3 -390 4 -406 21 -16 16 -18
48 -23 340 -6 376 -3 363 -119 467 -107 95 -135 174 -91 260 60 117 246 214
470 245 122 17 156 17 279 5z m931 0 c304 -32 539 -174 540 -326 0 -47 -46
-128 -96 -169 -25 -21 -57 -55 -71 -76 l-26 -39 -130 0 c-107 0 -134 -3 -149
-17 -22 -20 -23 -51 -1 -75 14 -16 33 -18 140 -18 l123 0 0 -288 c0 -281 -1
-289 -21 -308 -20 -18 -44 -19 -413 -22 l-391 -3 2 318 c2 175 6 333 9 352 4
25 24 52 75 102 87 85 123 156 123 244 -1 106 -54 196 -163 272 -36 26 -70 50
-75 55 -14 11 409 10 524 -2z m-1734 -1457 c-3 -10 -37 -164 -76 -343 -39
-179 -73 -333 -76 -342 -5 -17 -26 -18 -253 -18 -136 0 -250 3 -253 6 -4 4
188 599 227 702 3 9 57 12 220 12 201 0 216 -1 211 -17z m1092 -340 l-3 -358
-257 -3 c-142 -1 -258 1 -258 4 0 15 70 652 75 682 l6 32 220 0 219 0 -2 -357z
m1087 325 c4 -18 38 -174 76 -347 38 -172 69 -320 69 -327 0 -12 -44 -14 -249
-14 -146 0 -252 4 -256 9 -3 6 -21 155 -40 333 -19 178 -37 335 -40 351 l-4
27 218 0 219 0 7 -32z m1041 16 c19 -9 41 -26 49 -37 15 -21 295 -649 295
-661 0 -4 -113 -5 -252 -4 l-251 3 -114 340 c-62 187 -116 348 -119 358 -5 16
8 17 176 17 148 0 188 -3 216 -16z m-3956 -114 c11 -11 20 -28 20 -38 0 -10
-29 -105 -65 -212 -43 -130 -72 -201 -86 -212 -32 -27 -171 -26 -199 2 -11 11
-20 29 -20 39 0 20 149 358 176 399 20 30 47 41 107 41 34 1 52 -4 67 -19z
m1128 4 c17 -11 22 -25 22 -57 0 -56 -37 -367 -46 -390 -10 -27 -46 -37 -127
-37 -74 0 -112 12 -130 41 -14 23 71 413 96 440 23 25 150 28 185 3z m1132 -4
c11 -11 20 -26 20 -32 0 -7 10 -100 21 -206 28 -243 34 -232 -122 -232 -146 0
-139 -13 -139 247 0 249 -3 243 120 243 67 0 83 -3 100 -20z m1101 4 c26 -24
153 -408 145 -440 -9 -33 -42 -44 -132 -44 -78 0 -108 9 -118 35 -14 38 -86
371 -86 401 0 47 29 64 109 64 45 0 70 -5 82 -16z m-2793 -766 c-9 -139 -101
-235 -236 -246 -73 -6 -134 14 -188 61 -58 51 -85 106 -92 184 l-5 63 263 0
262 0 -4 -62z m1262 24 c0 -222 -248 -351 -422 -219 -60 46 -98 123 -98 198
l0 59 260 0 260 0 0 -38z m1250 0 c0 -222 -248 -351 -422 -219 -60 46 -98 123
-98 198 l0 59 260 0 260 0 0 -38z m1250 -21 c0 -183 -197 -306 -366 -227 -90
42 -154 144 -154 248 l0 38 260 0 260 0 0 -59z m-4230 -304 c19 -14 64 -35
100 -47 131 -45 272 -9 374 95 l52 53 42 -48 c28 -32 65 -60 109 -82 61 -30
76 -33 158 -33 78 0 98 4 152 29 40 18 81 48 113 82 l50 53 47 -50 c27 -29 72
-62 112 -82 59 -29 74 -32 156 -32 82 0 97 3 157 33 42 21 83 51 112 83 l45
50 23 -32 c35 -47 106 -95 178 -119 131 -45 272 -9 374 95 l52 53 42 -48 c28
-32 65 -60 109 -82 61 -30 76 -33 158 -33 78 0 98 4 152 29 40 18 81 48 113
82 l50 53 47 -50 c27 -29 72 -62 112 -82 59 -29 74 -32 156 -32 82 0 97 3 157
33 42 21 83 51 112 83 l45 50 21 -29 c52 -70 189 -142 270 -142 l30 0 0 -895
0 -895 -1330 0 -1330 0 0 698 c0 658 -1 699 -19 738 -10 23 -34 52 -52 65
l-34 24 -591 3 -590 2 -34 -22 c-18 -13 -43 -36 -54 -51 -21 -28 -21 -36 -24
-743 l-2 -714 -170 0 -170 0 0 894 0 894 55 7 c77 9 166 57 217 115 l43 49 35
-38 c19 -21 51 -50 70 -64z m1188 -443 l22 -15 0 -870 0 -869 -590 0 -590 0 0
869 0 870 22 15 c20 14 90 16 568 16 478 0 548 -2 568 -16z m-1438 -1634 l0
-110 -198 0 c-141 0 -201 3 -210 12 -8 8 -12 45 -12 100 0 72 3 89 18 97 10 6
97 11 210 11 l192 0 0 -110z m4469 96 c8 -9 11 -47 9 -107 l-3 -94 -1367 -3
-1368 -2 0 110 0 110 1359 0 c1152 0 1360 -2 1370 -14z"/>
<path d="M1857 4702 c-25 -28 -21 -48 20 -93 44 -48 70 -61 98 -46 48 24 46
46 -11 107 -50 54 -80 62 -107 32z"/>
<path d="M2214 4695 c-21 -32 -12 -55 41 -104 49 -45 60 -48 93 -25 35 24 27
55 -26 107 -54 53 -84 59 -108 22z"/>
<path d="M1860 4340 c-29 -29 -25 -45 21 -95 49 -53 81 -65 109 -40 32 29 24
58 -30 109 -55 51 -71 55 -100 26z"/>
<path d="M2220 4340 c-29 -29 -25 -45 26 -100 50 -54 80 -62 107 -32 28 31 20
57 -33 106 -55 51 -71 55 -100 26z"/>
<path d="M1860 3980 c-29 -29 -25 -45 26 -100 49 -53 80 -62 108 -34 27 26 18
55 -33 105 -53 54 -71 59 -101 29z"/>
<path d="M2220 3980 c-29 -29 -25 -45 26 -100 51 -54 80 -62 109 -30 25 28 13
60 -40 109 -50 46 -66 50 -95 21z"/>
<path d="M2817 4342 c-22 -24 -21 -55 1 -75 15 -14 40 -17 121 -17 121 0 141
8 141 55 0 47 -20 55 -143 55 -88 0 -106 -3 -120 -18z"/>
<path d="M2470 1989 c-19 -11 -44 -33 -55 -47 -19 -26 -20 -45 -23 -503 l-3
-475 23 -35 c13 -19 43 -44 68 -57 l44 -22 917 0 916 0 43 23 c30 16 51 37 67
67 l23 43 0 446 c0 444 0 447 -22 491 -13 24 -36 53 -51 64 -28 21 -37 21
-970 23 -935 3 -942 3 -977 -18z m1888 -95 c21 -15 22 -20 22 -210 l0 -194
-70 0 -70 0 0 53 c0 64 -25 115 -70 141 -38 22 -148 32 -236 21 -49 -6 -64
-13 -96 -45 -36 -36 -38 -41 -38 -104 l0 -66 -70 0 -70 0 0 53 c0 65 -25 115
-71 142 -29 17 -52 20 -154 20 -110 0 -123 -2 -153 -23 -44 -32 -62 -71 -62
-137 l0 -55 -70 0 -70 0 0 53 c0 64 -25 115 -70 141 -38 22 -148 32 -236 21
-49 -6 -64 -13 -96 -45 -36 -36 -38 -41 -38 -104 l0 -66 -75 0 -75 0 0 189 0
190 26 20 c27 21 31 21 923 21 795 0 899 -2 919 -16z m-1404 -300 c12 -4 16
-20 16 -55 l0 -49 -115 0 -115 0 0 43 c0 24 5 48 12 55 13 13 173 17 202 6z
m594 -51 l3 -53 -115 0 -116 0 0 43 c0 63 9 68 125 65 l100 -3 3 -52z m566 51
c12 -4 16 -20 16 -55 l0 -49 -115 0 -115 0 0 43 c0 24 5 48 12 55 13 13 173
17 202 6z m266 -406 c0 -225 -1 -228 -85 -228 l-53 0 -4 65 c-4 74 -24 107
-78 137 -30 16 -52 19 -152 16 -99 -3 -121 -6 -144 -24 -47 -35 -64 -66 -70
-131 l-7 -63 -62 0 -63 0 -4 65 c-4 74 -24 107 -78 136 -49 26 -229 27 -280 1
-54 -27 -80 -74 -80 -143 l0 -59 -69 0 -69 0 -4 65 c-4 74 -24 107 -78 137
-30 16 -52 19 -152 16 -99 -3 -121 -6 -144 -24 -47 -35 -64 -66 -70 -131 l-7
-63 -48 0 c-36 0 -54 5 -69 20 -19 19 -20 33 -20 203 0 101 3 187 7 190 3 4
429 7 945 7 l938 0 0 -192z m-1412 -175 l3 -53 -115 0 -116 0 0 43 c0 63 9 68
125 65 l100 -3 3 -52z m580 0 l3 -53 -115 0 -116 0 0 43 c0 63 9 68 125 65
l100 -3 3 -52z m580 0 l3 -53 -115 0 -116 0 0 43 c0 63 9 68 125 65 l100 -3 3
-52z"/>
<path d="M986 1164 c-13 -12 -16 -40 -16 -139 0 -133 8 -155 54 -155 47 0 56
26 56 157 0 103 -3 122 -18 136 -23 21 -56 22 -76 1z"/>
</g>
</svg>
